<svg width="58" height="58" viewBox="0 0 58 58" fill="none" xmlns="http://www.w3.org/2000/svg">
<g filter="url(#filter0_d_805_179)">
<rect x="14" y="7" width="30" height="30" rx="6" fill="url(#paint0_linear_805_179)" shape-rendering="crispEdges"/>
</g>
<path d="M29.0002 17.9094C28.3409 17.923 27.7084 18.173 27.218 18.6139C26.7276 19.0548 26.412 19.6572 26.3287 20.3113C26.2454 20.9655 26.3999 21.6278 26.764 22.1776C27.1282 22.7273 27.6778 23.1279 28.3127 23.3063V30.9719C28.3127 31.1543 28.3851 31.3291 28.514 31.4581C28.643 31.587 28.8178 31.6594 29.0002 31.6594C29.1825 31.6594 29.3574 31.587 29.4863 31.4581C29.6152 31.3291 29.6877 31.1543 29.6877 30.9719V23.3063C30.3225 23.1279 30.8721 22.7273 31.2363 22.1776C31.6005 21.6278 31.755 20.9655 31.6717 20.3113C31.5883 19.6572 31.2727 19.0548 30.7823 18.6139C30.292 18.173 29.6595 17.923 29.0002 17.9094Z" fill="#F66F4D"/>
<path d="M33.9498 14.9532C33.8106 14.8596 33.6419 14.8203 33.4756 14.8425C33.3093 14.8647 33.1569 14.9469 33.047 15.0737C32.9372 15.2004 32.8774 15.363 32.8791 15.5307C32.8808 15.6985 32.9437 15.8598 33.0561 15.9844C33.726 16.5652 34.2633 17.2833 34.6315 18.0899C34.9997 18.8964 35.1902 19.7727 35.1902 20.6594C35.1902 21.5461 34.9997 22.4224 34.6315 23.229C34.2633 24.0355 33.726 24.7536 33.0561 25.3344C32.9752 25.3887 32.9068 25.4595 32.8554 25.5423C32.804 25.625 32.7707 25.7177 32.7579 25.8142C32.745 25.9108 32.7527 26.0089 32.7807 26.1022C32.8086 26.1955 32.856 26.2818 32.9198 26.3554C32.9836 26.429 33.0623 26.4882 33.1507 26.5291C33.239 26.57 33.3351 26.5917 33.4325 26.5926C33.5299 26.5936 33.6264 26.5739 33.7156 26.5347C33.8047 26.4956 33.8846 26.438 33.9498 26.3657C34.766 25.6558 35.4205 24.7791 35.8689 23.7947C36.3174 22.8103 36.5494 21.7411 36.5494 20.6594C36.5494 19.5777 36.3174 18.5085 35.8689 17.5241C35.4205 16.5398 34.766 15.663 33.9498 14.9532ZM22.8123 20.6594C22.812 19.773 23.0021 18.8968 23.3698 18.0902C23.7375 17.2837 24.2742 16.5655 24.9436 15.9844C25.0559 15.8598 25.1189 15.6985 25.1205 15.5307C25.1222 15.363 25.0625 15.2004 24.9526 15.0737C24.8427 14.9469 24.6903 14.8647 24.524 14.8425C24.3578 14.8203 24.1891 14.8596 24.0498 14.9532C23.2336 15.663 22.5792 16.5398 22.1307 17.5241C21.6823 18.5085 21.4502 19.5777 21.4502 20.6594C21.4502 21.7411 21.6823 22.8103 22.1307 23.7947C22.5792 24.7791 23.2336 25.6558 24.0498 26.3657C24.1891 26.4592 24.3578 26.4985 24.524 26.4763C24.6903 26.4541 24.8427 26.3719 24.9526 26.2452C25.0625 26.1184 25.1222 25.9558 25.1205 25.7881C25.1189 25.6203 25.0559 25.459 24.9436 25.3344C24.2742 24.7533 23.7375 24.0351 23.3698 23.2286C23.0021 22.422 22.812 21.5458 22.8123 20.6594Z" fill="#F66F4D"/>
<path d="M36.3908 12.5126C36.3231 12.4516 36.244 12.4046 36.1581 12.3742C36.0722 12.3438 35.9812 12.3306 35.8902 12.3354C35.7993 12.3402 35.7101 12.3629 35.6279 12.4021C35.5457 12.4414 35.472 12.4964 35.4111 12.5641C35.3501 12.6318 35.3031 12.7109 35.2727 12.7968C35.2424 12.8826 35.2292 12.9737 35.234 13.0646C35.2388 13.1556 35.2614 13.2447 35.3006 13.327C35.3399 13.4092 35.3949 13.4829 35.4626 13.5438C36.4529 14.4458 37.244 15.5446 37.7853 16.7699C38.3266 17.9951 38.6062 19.3199 38.6062 20.6594C38.6062 21.9989 38.3266 23.3237 37.7853 24.549C37.244 25.7742 36.4529 26.873 35.4626 27.7751C35.3949 27.836 35.3399 27.9097 35.3006 27.9919C35.2614 28.0741 35.2388 28.1632 35.234 28.2542C35.2292 28.3452 35.2424 28.4362 35.2727 28.5221C35.3031 28.608 35.3501 28.687 35.4111 28.7547C35.472 28.8225 35.5457 28.8775 35.6279 28.9167C35.7101 28.956 35.7993 28.9786 35.8902 28.9834C35.9812 28.9882 36.0722 28.975 36.1581 28.9446C36.244 28.9143 36.3231 28.8672 36.3908 28.8063C37.5217 27.7755 38.4252 26.52 39.0433 25.1201C39.6615 23.7203 39.9808 22.2069 39.9808 20.6766C39.9808 19.1464 39.6615 17.6329 39.0433 16.2331C38.4252 14.8332 37.5217 13.5778 36.3908 12.5469V12.5126ZM19.3752 20.6594C19.3797 19.3188 19.6632 17.9939 20.2076 16.7688C20.7521 15.5438 21.5456 14.4455 22.5376 13.5438C22.6744 13.4207 22.7567 13.2484 22.7663 13.0646C22.776 12.8809 22.7123 12.7009 22.5892 12.5641C22.4661 12.4274 22.2938 12.3451 22.11 12.3354C21.9263 12.3258 21.7463 12.3895 21.6095 12.5126C20.4786 13.5434 19.5751 14.7989 18.957 16.1987C18.3388 17.5986 18.0195 19.112 18.0195 20.6422C18.0195 22.1725 18.3388 23.6859 18.957 25.0858C19.5751 26.4856 20.4786 27.7411 21.6095 28.7719C21.6772 28.8329 21.7563 28.8799 21.8422 28.9103C21.9281 28.9407 22.0191 28.9538 22.11 28.949C22.201 28.9443 22.2902 28.9216 22.3724 28.8824C22.4546 28.8431 22.5283 28.7881 22.5892 28.7204C22.6502 28.6527 22.6972 28.5736 22.7276 28.4877C22.7579 28.4018 22.7711 28.3108 22.7663 28.2198C22.7615 28.1289 22.7389 28.0397 22.6996 27.9575C22.6604 27.8753 22.6054 27.8016 22.5376 27.7407C21.5498 26.8429 20.7588 25.7502 20.2145 24.5314C19.6702 23.3126 19.3844 21.9942 19.3752 20.6594Z" fill="#F66F4D"/>
<defs>
<filter id="filter0_d_805_179" x="0" y="0" width="58" height="58" filterUnits="userSpaceOnUse" color-interpolation-filters="sRGB">
<feFlood flood-opacity="0" result="BackgroundImageFix"/>
<feColorMatrix in="SourceAlpha" type="matrix" values="0 0 0 0 0 0 0 0 0 0 0 0 0 0 0 0 0 0 127 0" result="hardAlpha"/>
<feMorphology radius="5" operator="erode" in="SourceAlpha" result="effect1_dropShadow_805_179"/>
<feOffset dy="7"/>
<feGaussianBlur stdDeviation="9.5"/>
<feComposite in2="hardAlpha" operator="out"/>
<feColorMatrix type="matrix" values="0 0 0 0 0.570718 0 0 0 0 0.389126 0 0 0 0 0 0 0 0 0.11 0"/>
<feBlend mode="normal" in2="BackgroundImageFix" result="effect1_dropShadow_805_179"/>
<feBlend mode="normal" in="SourceGraphic" in2="effect1_dropShadow_805_179" result="shape"/>
</filter>
<linearGradient id="paint0_linear_805_179" x1="29" y1="7" x2="45" y2="73" gradientUnits="userSpaceOnUse">
<stop stop-color="white"/>
<stop offset="1" stop-color="white" stop-opacity="0"/>
</linearGradient>
</defs>
</svg>
